<svg width="360" height="360" viewBox="0 0 360 360" fill="none" xmlns="http://www.w3.org/2000/svg">
<path d="M253.8 218.15H108V117.965C108 114.881 110.29 112.371 113.186 112.371H165.849C168.542 112.371 170.765 114.595 171.034 117.463V123.129H249.628C252 123.129 253.8 124.993 253.8 127.001V218.15Z" fill="#EFEFEF" stroke="#AAAAAA" stroke-width="2"/>
<path d="M253.118 232.493H107.18C104.617 232.493 102.482 230.514 102.339 227.899L97.2001 150.021C96.9865 147.124 99.7527 144.572 102.6 144.643H183.6L196.2 133.886H258.3C262.8 133.886 264.793 137.933 264.509 140.831L257.888 227.97C257.746 230.514 255.61 232.493 253.118 232.493Z" fill="#F9F9F9" stroke="#AAAAAA" stroke-width="2"/>
<path fill-rule="evenodd" clip-rule="evenodd" d="M180 171.977C182.407 171.819 188.472 171.536 195.547 171.536C202.887 171.536 207.441 172.146 208.8 172.452C208.8 177.489 206.736 188.026 201.664 188.937C196.567 189.853 187.901 189.853 185.862 186.648C184.231 184.083 182.464 178.252 181.784 175.657L180 174.856L178.216 175.657C177.536 178.252 175.769 184.083 174.138 186.648C172.099 189.853 163.434 189.853 158.336 188.937C153.264 188.026 151.2 177.489 151.2 172.452C152.559 172.146 157.113 171.536 164.453 171.536C171.529 171.536 177.593 171.819 180 171.977Z" fill="#AAAAAA"/>
<path d="M129.12 256.513L129.151 256.455L129.177 256.394L145.618 218.286C146.89 215.337 145.765 211.909 142.998 210.277C140.051 208.539 136.25 209.422 134.38 212.288L124.453 227.499C124.396 227.587 124.344 227.612 124.309 227.624C124.261 227.64 124.191 227.645 124.113 227.622C124.035 227.599 123.981 227.557 123.951 227.52C123.929 227.493 123.9 227.445 123.9 227.341V219.943V183.189C123.9 179.88 121.208 177.207 117.9 177.207C114.592 177.207 111.9 179.88 111.9 183.189V217.254C111.9 217.905 111.369 218.443 110.7 218.443C110.032 218.443 109.5 217.905 109.5 217.254V176.018C109.5 172.708 106.808 170.036 103.5 170.036C100.192 170.036 97.5002 172.708 97.5002 176.018V217.254C97.5002 217.905 96.9686 218.443 96.3002 218.443C95.6318 218.443 95.1002 217.905 95.1002 217.254V184.982C95.1002 181.673 92.4083 179 89.1002 179C85.7921 179 83.1002 181.673 83.1002 184.982V217.254C83.1002 217.905 82.5686 218.443 81.9002 218.443C81.2318 218.443 80.7002 217.905 80.7002 217.254V195.739C80.7002 192.43 78.0083 189.757 74.7002 189.757C71.3921 189.757 68.7002 192.43 68.7002 195.739V219.943V230.7V245.043V245.141L68.7129 245.238L68.8761 246.484C70.4697 258.653 78.3419 269.458 90.5377 272.495C92.751 273.046 95.6935 273.243 98.5465 273.214C101.415 273.186 104.316 272.927 106.482 272.512C116.346 270.623 124.083 265.83 129.12 256.513Z" fill="white" stroke="#FF6F3D" stroke-width="3"/>
<path d="M172.8 200.221H187.2" stroke="#AAAAAA" stroke-width="2" stroke-linecap="round"/>
<path d="M190.8 65.7571L194.4 69.3429" stroke="#FF6F3D" stroke-width="2" stroke-linecap="round"/>
<path d="M205.2 80.1L201.6 76.5143" stroke="#FF6F3D" stroke-width="2" stroke-linecap="round"/>
<path d="M205.2 65.7571L201.6 69.3429" stroke="#FF6F3D" stroke-width="2" stroke-linecap="round"/>
<path d="M190.8 80.1L194.4 76.5143" stroke="#FF6F3D" stroke-width="2" stroke-linecap="round"/>
<path d="M46.7998 119.543L50.3998 123.129" stroke="#FF6F3D" stroke-width="2" stroke-linecap="round"/>
<path d="M61.2002 133.886L57.6002 130.3" stroke="#FF6F3D" stroke-width="2" stroke-linecap="round"/>
<path d="M61.2002 119.543L57.6002 123.129" stroke="#FF6F3D" stroke-width="2" stroke-linecap="round"/>
<path d="M46.7998 133.886L50.3998 130.3" stroke="#FF6F3D" stroke-width="2" stroke-linecap="round"/>
<path d="M302.4 171.536L306 175.121" stroke="#FF6F3D" stroke-width="2" stroke-linecap="round"/>
<path d="M316.801 185.879L313.201 182.293" stroke="#FF6F3D" stroke-width="2" stroke-linecap="round"/>
<path d="M316.801 171.536L313.201 175.121" stroke="#FF6F3D" stroke-width="2" stroke-linecap="round"/>
<path d="M302.4 185.879L306 182.293" stroke="#FF6F3D" stroke-width="2" stroke-linecap="round"/>
<path d="M223.2 111.282L241.2 105.2L259.2 111.282V129.544C259.2 133.497 257.254 137.195 253.997 139.434L241.767 147.839C241.425 148.074 240.975 148.074 240.634 147.839L228.403 139.434C225.146 137.195 223.2 133.497 223.2 129.544V111.282Z" fill="#808080"/>
<path d="M234 124.473L240.187 130.636L251.325 119.543" stroke="white" stroke-width="2" stroke-linecap="round"/>
</svg>
