<svg width="18" height="18" viewBox="0 0 18 18" fill="none" xmlns="http://www.w3.org/2000/svg">
<g clip-path="url(#clip0_4735_55059)">
<path fill-rule="evenodd" clip-rule="evenodd" d="M9 18C13.9706 18 18 13.9706 18 9C18 4.02944 13.9706 0 9 0C4.02944 0 0 4.02944 0 9C0 13.9706 4.02944 18 9 18ZM7.59375 13.5C7.59375 14.2752 8.22478 14.9062 9 14.9062C9.77522 14.9062 10.4062 14.2752 10.4062 13.5C10.4062 12.7247 9.77522 12.0937 9 12.0937C8.22478 12.0937 7.59375 12.7247 7.59375 13.5ZM9.00001 10.5C9.77522 10.5 10.4063 9.86902 10.4063 9.0938L10.4062 4.50003C10.4062 3.72481 9.77522 3.09375 9 3.09375C8.22478 3.09375 7.59375 3.72481 7.59375 4.50003L7.59376 9.0938C7.59376 9.86902 8.22479 10.5 9.00001 10.5Z" fill="#2271B1"/>
</g>
<defs>
<clipPath id="clip0_4735_55059">
<rect width="18" height="18" fill="white"/>
</clipPath>
</defs>
</svg>
