<svg width="360" height="360" viewBox="0 0 360 360" fill="none" xmlns="http://www.w3.org/2000/svg">
<rect width="360" height="360" fill="white"/>
<path fill-rule="evenodd" clip-rule="evenodd" d="M275.333 293.403C273.726 289.843 271.704 287.172 269 285.487L274.288 277C279.224 280.075 282.342 284.625 284.448 289.289C286.535 293.914 287.766 298.972 288.737 303.39L288.738 303.391C289.706 307.804 290.709 311.996 292.275 315.664C293.82 319.282 295.772 322.04 298.424 323.851C298.424 323.851 298.424 323.851 298.424 323.851C298.425 323.85 298.569 323.935 298.939 324.07C299.352 324.22 299.919 324.388 300.659 324.56C302.144 324.906 304.078 325.216 306.389 325.481C311.002 326.01 316.737 326.32 322.616 326.477C334.396 326.79 346.268 326.476 349.98 326.198L350.728 336.17C346.57 336.481 334.337 336.792 322.35 336.473C316.345 336.313 310.28 335.993 305.249 335.416C302.739 335.128 300.391 334.765 298.391 334.299C296.541 333.869 294.431 333.23 292.81 332.126L292.81 332.126C288.039 328.878 285.076 324.269 283.078 319.591C281.099 314.957 279.932 309.915 278.971 305.537M275.333 293.403C276.958 297.003 278.012 301.174 278.97 305.536L275.333 293.403Z" fill="url(#paint0_linear_4463_32607)"/>
<path fill-rule="evenodd" clip-rule="evenodd" d="M65.2942 298.324C73.1203 289.279 81.4875 279.61 88.7676 273L95.4897 280.404C88.7003 286.568 80.8196 295.671 72.9598 304.749C71.5257 306.406 70.0922 308.062 68.6663 309.699C64.118 314.92 59.6556 319.933 55.6249 323.955C51.7476 327.825 47.7372 331.338 44.1142 332.943L44.1083 332.946C43.0766 333.401 41.8644 333.678 40.8582 333.868C39.7589 334.076 38.4967 334.253 37.1705 334.407C34.514 334.715 31.3595 334.958 28.27 335.158C25.4257 335.342 22.7127 335.487 20.4021 335.61C17.4821 335.766 15.2047 335.888 14.1174 336.011L13 326.073C14.3256 325.924 17.1824 325.769 20.503 325.589C22.7739 325.466 25.2616 325.331 27.6248 325.178C30.6642 324.982 33.6177 324.752 36.0184 324.473C37.2208 324.334 38.2244 324.189 38.9995 324.042C39.6536 323.919 39.9685 323.825 40.0544 323.8C40.0794 323.792 40.085 323.791 40.0739 323.796C41.812 323.021 44.6554 320.775 48.5606 316.878C52.3205 313.125 56.5819 308.346 61.1261 303.13C62.4915 301.563 63.8841 299.953 65.2942 298.324Z" fill="url(#paint1_linear_4463_32607)"/>
<path d="M182.5 337.514C232.554 337.514 273.13 332.894 273.13 327.194C273.13 321.494 232.554 316.874 182.5 316.874C132.447 316.874 91.8701 321.494 91.8701 327.194C91.8701 332.894 132.447 337.514 182.5 337.514Z" fill="#DDDDDD"/>
<path d="M216.85 256.914C222.13 252.284 225.95 253.054 237.09 265.854C241.81 271.284 247.41 271.394 254.69 277.534C256.63 279.164 257.32 291.284 255.39 291.484C236.44 293.414 224.77 286.004 215.5 272.754C211.98 267.754 211.79 261.354 216.85 256.914Z" fill="#AA3F25" stroke="#5F1B12" stroke-width="2.5" stroke-miterlimit="10"/>
<path d="M219.43 272.314C219.21 272.584 218.97 272.844 218.73 273.104C216.04 275.904 211.75 277.474 208.16 276.014C208.78 268.774 210.1 262.054 211.17 254.934C211.89 250.084 217.17 247.044 221.64 250.344C223.43 251.674 224.38 253.914 224.58 256.134C224.78 258.354 224.32 260.584 223.76 262.734C222.88 266.154 221.67 269.604 219.43 272.314Z" fill="#91231E" stroke="#5F1B12" stroke-width="2.5" stroke-miterlimit="10"/>
<path d="M248.17 301.615C248.23 302.425 248.48 303.295 248.95 304.205C249.76 305.775 251.26 307.115 253.03 307.245C255.46 307.425 258.56 302.765 260.7 301.215C262.59 299.845 266.4 297.375 264.37 294.635C263.6 293.595 262.17 293.305 260.87 293.265C255.72 293.095 247.76 296.165 248.17 301.615Z" fill="#91231E" stroke="#5F1B12" stroke-width="2.5" stroke-miterlimit="10"/>
<path d="M243.98 297.834C244.04 298.644 244.29 299.514 244.76 300.424C245.57 301.994 247.07 303.334 248.84 303.464C251.27 303.644 254.37 298.984 256.51 297.434C258.4 296.064 262.21 293.594 260.18 290.854C259.41 289.814 257.98 289.524 256.68 289.484C251.52 289.314 243.56 292.384 243.98 297.834Z" fill="#91231E" stroke="#5F1B12" stroke-width="2.5" stroke-miterlimit="10"/>
<path d="M189.75 322.854C193.88 318.464 198.72 313.394 200.45 307.614C208.54 306.694 216.64 305.774 224.73 304.854C226.38 304.664 228.33 304.594 229.36 305.894C230.5 307.314 229.78 309.394 229.02 311.054C226.24 317.084 224.42 326.384 216.8 327.174C212.57 327.614 192.04 320.424 189.75 322.854Z" fill="#AA3F25" stroke="#5F1B12" stroke-width="2.5" stroke-miterlimit="10" stroke-linecap="round" stroke-linejoin="round"/>
<path d="M181.8 322.774C184.63 325.214 188.71 325.004 191.7 323.264C194.69 321.524 196.82 318.564 198.88 315.674C200.71 313.104 202.57 310.464 203.43 307.304C206.48 296.014 193.15 291.464 186.12 296.754C180.56 300.924 174.92 316.834 181.8 322.774Z" fill="#91231E" stroke="#5F1B12" stroke-width="2.5" stroke-miterlimit="10"/>
<path d="M198.83 232.395C202.28 238.875 217.38 237.185 219.41 251.755C222.01 270.435 204.07 288.025 194.79 309.945C188.41 325.015 181.29 324.055 169.46 324.505C152.82 325.135 143.96 328.805 139.63 312.725C134.99 295.485 136.85 240.975 160.3 237.725C160.42 237.705 198.83 232.395 198.83 232.395Z" fill="#F04E26" stroke="#5F1B12" stroke-width="2.5" stroke-miterlimit="10" stroke-linecap="round" stroke-linejoin="round"/>
<path d="M136.41 265.494C136.56 266.034 136.76 266.554 137.02 267.054C138.31 269.514 141.12 271.084 143.89 270.884C150.93 270.374 156.38 259.784 155.87 254.064C155.01 244.374 139.61 242.774 138 247.824C136.97 251.084 136.9 254.914 136.43 258.294C136.1 260.684 135.79 263.224 136.41 265.494Z" fill="#91231E" stroke="#5F1B12" stroke-width="2.5" stroke-miterlimit="10"/>
<path d="M143.88 246.204C136.94 245.114 135.73 247.194 120.98 257.554C114.44 262.144 109.22 257.524 101.5 263.084C99.45 264.564 93.54 279.394 100.59 280.374C118.31 282.824 131.49 277.174 145.19 264.724C149.72 260.594 153.44 247.714 143.88 246.204Z" fill="#AA3F25" stroke="#5F1B12" stroke-width="2.5" stroke-miterlimit="10"/>
<path d="M135.33 311.375C134.82 306.905 136.83 302.015 140.82 299.945C143.69 298.455 147.02 298.595 150.15 299.615C151.84 300.165 153.46 300.965 154.93 301.905C159.13 304.585 162.75 308.505 164.09 313.305C169.79 333.715 137.29 328.655 135.33 311.375Z" fill="#91231E" stroke="#5F1B12" stroke-width="2.5" stroke-miterlimit="10"/>
<path d="M226.54 305.654C231.99 301.084 241.51 297.504 248.61 297.174C250.46 297.084 252.38 297.174 254.08 297.904C255.79 298.634 257.26 300.124 257.54 301.964C257.99 304.934 255.4 307.404 253.05 309.274C248.44 312.954 243.37 316.404 238.94 320.224C235.04 323.574 232.11 328.344 226.77 329.634C221.12 331.004 209.29 326.064 203.85 324.584" fill="#AA3F25"/>
<path d="M226.54 305.654C231.99 301.084 241.51 297.504 248.61 297.174C250.46 297.084 252.38 297.174 254.08 297.904C255.79 298.634 257.26 300.124 257.54 301.964C257.99 304.934 255.4 307.404 253.05 309.274C248.44 312.954 243.37 316.404 238.94 320.224C235.04 323.574 232.11 328.344 226.77 329.634C221.12 331.004 209.29 326.064 203.85 324.584" stroke="#5F1B12" stroke-width="2.5" stroke-miterlimit="10" stroke-linecap="round" stroke-linejoin="round"/>
<path d="M119.37 287.994C121.37 289.074 123.42 290.554 123.97 292.754C124.47 294.794 123.55 296.884 122.66 298.784C122.13 299.914 121.58 301.064 120.73 301.984C116.28 306.784 110.27 296.454 109.13 293.244C108.33 290.994 108.78 285.114 110.63 283.084C111.17 282.484 117.05 286.744 119.37 287.994Z" fill="#91231E" stroke="#5F1B12" stroke-width="2.5" stroke-miterlimit="10"/>
<path d="M117.05 282.634C116.53 281.484 116 280.234 116.27 278.994C116.57 277.624 117.85 276.614 119.21 276.274C120.58 275.934 122.02 276.164 123.38 276.514C126.85 277.404 130.2 279.204 132.3 282.114C135.71 286.844 134.47 295.344 127.55 295.944C121.23 296.484 119.03 287.014 117.05 282.634Z" fill="#91231E" stroke="#5F1B12" stroke-width="2.5" stroke-miterlimit="10"/>
<path d="M132.05 286.784C132.44 288.044 132.88 289.384 133.91 290.204C135.34 291.354 137.39 291.144 139.2 290.874C141.88 290.484 145.01 289.754 146.05 287.244C147.07 284.794 145.42 282.034 143.47 280.224C139.73 276.764 133.93 274.394 128.8 275.254C128.74 278.794 130.97 283.304 132.05 286.784Z" fill="#91231E" stroke="#5F1B12" stroke-width="2.5" stroke-miterlimit="10"/>
<path d="M123.58 310.765C122.29 309.685 121.03 308.575 119.9 307.335C105.34 291.435 135.75 274.505 148.8 290.515C152.34 294.865 154.38 300.245 155.81 305.665C157.05 310.365 157.88 315.175 158.29 320.025C159.08 329.465 149.61 334.015 141.39 330.125C134.62 326.915 133.9 320.005 128.86 315.235C127.18 313.645 125.35 312.235 123.58 310.765Z" fill="#F04E26" stroke="#5F1B12" stroke-width="2.5" stroke-miterlimit="10" stroke-linecap="round" stroke-linejoin="round"/>
<path d="M252.18 289.455C255.24 289.695 250.48 294.145 249.24 295.635C246.88 298.455 243.85 302.305 240.71 303.415C238.64 304.145 236.58 303.535 235.54 301.895C233.04 297.945 236.87 292.805 240.97 290.735C244.73 288.825 248.7 289.185 252.18 289.455Z" fill="#91231E" stroke="#5F1B12" stroke-width="2.5" stroke-miterlimit="10"/>
<path d="M212.1 145.855C212.1 145.855 242.49 133.925 248.01 141.705C253.53 149.485 238.58 173.535 238.58 173.535L212.1 145.855Z" fill="#91231E" stroke="#5F1B12" stroke-width="2.5" stroke-miterlimit="10"/>
<path d="M232.72 188.624C232.72 188.624 258.08 195.244 255.44 202.354C252.8 209.464 222.86 219.454 222.86 219.454L232.72 188.624Z" fill="#91231E" stroke="#5F1B12" stroke-width="2.5" stroke-miterlimit="10"/>
<path d="M122.55 154.845C121.06 153.135 86.9398 149.235 83.7498 160.635C80.5598 172.035 115.76 186.365 115.76 186.365L122.55 154.845Z" fill="#91231E" stroke="#5F1B12" stroke-width="2.5" stroke-miterlimit="10"/>
<path d="M163.24 128.274C163.24 128.274 144.02 103.094 132.04 106.864C120.06 110.634 121.9 148.294 121.9 148.294L163.24 128.274Z" fill="#91231E" stroke="#5F1B12" stroke-width="2.5" stroke-miterlimit="10"/>
<path d="M216.95 140.204C216.79 138.534 221.32 105.284 213.93 101.784C206.54 98.294 177.91 121.384 177.91 121.384L216.95 140.204Z" fill="#91231E" stroke="#5F1B12" stroke-width="2.5" stroke-miterlimit="10"/>
<path d="M125.13 193.064C125.13 193.064 86.4796 203.524 90.7596 215.804C95.0396 228.084 138.12 220.854 138.12 220.854L125.13 193.064Z" fill="#91231E" stroke="#5F1B12" stroke-width="2.5" stroke-miterlimit="10"/>
<path d="M142.52 231.744C142.52 231.744 115.27 252.104 109.41 244.514C103.55 236.924 122.25 210.354 122.25 210.354L142.52 231.744Z" fill="#D44925" stroke="#5F1B12" stroke-width="2.5" stroke-miterlimit="10" stroke-linecap="round" stroke-linejoin="round"/>
<path d="M228.04 160.785C228.04 160.785 268.23 150.575 272.09 161.695C275.94 172.815 232.66 202.925 232.66 202.925L228.04 160.785Z" fill="#D44925" stroke="#5F1B12" stroke-width="2.5" stroke-miterlimit="10" stroke-linecap="round" stroke-linejoin="round"/>
<path d="M216.79 218.044C218.94 217.734 252.71 233.234 257.97 222.884C263.23 212.534 235.82 193.954 235.82 193.954L216.79 218.044Z" fill="#D44925" stroke="#5F1B12" stroke-width="2.5" stroke-miterlimit="10" stroke-linecap="round" stroke-linejoin="round"/>
<path d="M177.72 252.704C141.46 252.734 112.05 224.704 112.03 190.094C112 155.494 141.38 127.414 177.63 127.384C213.88 127.354 243.3 155.384 243.32 189.994C243.34 212.124 231.33 231.584 213.19 242.744" fill="#F04E26"/>
<path d="M177.72 252.704C141.46 252.734 112.05 224.704 112.03 190.094C112 155.494 141.38 127.414 177.63 127.384C213.88 127.354 243.3 155.384 243.32 189.994C243.34 212.124 231.33 231.584 213.19 242.744" stroke="#5F1B12" stroke-width="2.5" stroke-miterlimit="10" stroke-linecap="round" stroke-linejoin="round"/>
<path opacity="0.3" d="M123.16 189.605C123.14 159.695 144.61 134.565 173.65 127.515C139.93 130.175 113.44 157.125 113.46 189.985C113.49 224.375 142.54 252.265 178.5 252.575C147.07 247.285 123.18 221.125 123.16 189.605Z" fill="#5F1B12"/>
<path d="M182.312 192.056C189.347 183.086 186.946 169.46 176.951 161.621C166.955 153.782 153.149 154.7 146.115 163.67C139.08 172.64 141.481 186.266 151.477 194.104C161.472 201.943 175.278 201.026 182.312 192.056Z" fill="#742015" stroke="#5F1B12" stroke-width="2.5" stroke-miterlimit="10"/>
<path d="M231.011 174.104C232.48 163.106 226.109 153.181 216.781 151.935C207.453 150.689 198.7 158.594 197.231 169.592C195.762 180.589 202.133 190.515 211.461 191.761C220.789 193.007 229.542 185.102 231.011 174.104Z" fill="#742015" stroke="#5F1B12" stroke-width="2.5" stroke-miterlimit="10"/>
<path d="M196.29 215.476C208.812 214.663 218.535 207.422 218.008 199.304C217.481 191.186 206.903 185.264 194.381 186.078C181.86 186.891 172.136 194.131 172.663 202.249C173.191 210.367 183.769 216.289 196.29 215.476Z" fill="#611B0E" stroke="#5F1B12" stroke-width="2.5" stroke-miterlimit="10"/>
<path d="M193.952 195.659C198.317 195.376 201.75 193.524 201.62 191.524C201.49 189.523 197.846 188.131 193.481 188.415C189.117 188.698 185.683 190.55 185.813 192.55C185.943 194.551 189.587 195.943 193.952 195.659Z" fill="#AA3F25"/>
<path d="M201.56 131.154C201.56 131.154 186.44 81.0342 174.51 82.0142C162.58 82.9942 151.07 133.694 151.07 133.694C151.07 133.694 160.46 143.894 176.79 142.274C198.42 140.144 201.56 131.154 201.56 131.154Z" fill="#F04E26" stroke="#5F1B12" stroke-width="2.5" stroke-miterlimit="10" stroke-linecap="round" stroke-linejoin="round"/>
<path d="M114.8 169.124C114.8 169.124 90.5297 129.824 98.3297 122.444C106.13 115.064 147.85 135.184 147.85 135.184C147.85 135.184 151.93 147.304 136.61 161.524C124.9 172.384 114.8 169.124 114.8 169.124Z" fill="#F04E26" stroke="#5F1B12" stroke-width="2.5" stroke-miterlimit="10" stroke-linecap="round" stroke-linejoin="round"/>
<path d="M235.48 157.584C235.48 157.584 250.5 118.434 244.93 114.114C235.66 106.924 205.41 132.444 205.41 132.444C205.41 132.444 207.99 141.854 217.46 149.144C225.24 155.124 235.48 157.584 235.48 157.584Z" fill="#F04E26" stroke="#5F1B12" stroke-width="2.5" stroke-miterlimit="10" stroke-linecap="round" stroke-linejoin="round"/>
<path d="M120.08 213.634C119.71 213.524 85.8798 211.624 84.5198 200.314C83.1598 189.004 114.72 174.254 114.72 174.254C114.72 174.254 122.39 179.964 124.03 195.344C125.09 205.254 120.08 213.634 120.08 213.634Z" fill="#D44925" stroke="#5F1B12" stroke-width="2.5" stroke-miterlimit="10" stroke-linecap="round" stroke-linejoin="round"/>
<path d="M186.67 232.384C188.6 228.274 192.68 225.264 197.17 224.614C201.66 223.974 206.42 225.724 209.42 229.134" stroke="#5F1B12" stroke-width="2.5" stroke-miterlimit="10" stroke-linecap="round" stroke-linejoin="round"/>
<path d="M198.65 223.434C199.07 220.704 199.48 217.984 199.9 215.254" stroke="#5F1B12" stroke-width="2.5" stroke-miterlimit="10" stroke-linecap="round" stroke-linejoin="round"/>
<path d="M177.74 157.585C171.13 172.615 157.09 184.165 141.07 187.765C139.49 183.735 137.27 178.865 136.57 174.595C135.86 170.325 136.11 165.775 138.06 161.905C140.25 157.565 144.43 154.465 148.94 152.645C158.75 148.675 169.54 150.885 177.74 157.585Z" fill="#F04E26"/>
<path d="M141.08 187.764C157.1 184.164 171.13 172.614 177.75 157.584L141.08 187.764Z" fill="#F04E26"/>
<path d="M141.08 187.764C157.1 184.164 171.13 172.614 177.75 157.584" stroke="#5F1B12" stroke-width="2.5" stroke-miterlimit="10" stroke-linecap="round" stroke-linejoin="round"/>
<path d="M233.08 175.034C219.46 176.004 205.52 170.664 196.04 160.824C198.59 155.434 202.75 150.154 208.24 147.794C213.72 145.444 220.49 145.774 225.26 149.364C229 152.184 231.21 156.664 232.19 161.244C233.17 165.824 233.21 170.354 233.08 175.034Z" fill="#F04E26"/>
<path d="M196.04 160.824C205.52 170.654 219.46 176.004 233.08 175.034" stroke="#5F1B12" stroke-width="2.5" stroke-miterlimit="10" stroke-linecap="round" stroke-linejoin="round"/>
<path d="M161.35 190.055C163.33 189.345 164.96 187.475 164.99 185.375C165.02 183.325 163.54 181.455 161.69 180.565C159.84 179.665 157.7 179.595 155.66 179.825C152.51 180.175 147.05 182.105 149.62 186.045C151.72 189.245 157.82 191.325 161.35 190.055Z" fill="white"/>
<path d="M167.8 189.474C168.24 190.874 169.91 191.764 171.32 191.344C172.73 190.924 173.64 189.274 173.24 187.854C172.84 186.434 171.2 185.504 169.78 185.884C168.36 186.264 167.4 187.884 167.75 189.314" fill="white"/>
<path d="M217.87 172.984C220.16 171.664 223.44 172.564 224.74 174.864C226.82 178.534 223.23 184.664 218.81 182.804C214.99 181.194 214.14 175.124 217.87 172.984Z" fill="white"/>
<path d="M213.66 185.344C214.53 183.694 212.62 181.744 211.01 182.884C210.09 183.534 210.09 185.364 211 186.014C211.84 186.614 213.18 186.254 213.66 185.344Z" fill="white"/>
<path d="M154.2 144.734C149.66 146.354 145.11 147.984 140.57 149.604C138.3 150.414 136.03 151.224 133.75 152.044C132.25 152.574 129.79 153.354 129.84 155.394C129.86 156.434 130.2 157.484 130.84 158.304C132.28 160.164 134.79 160.924 137.14 160.814C139.49 160.714 141.73 159.864 143.93 159.034C147.11 157.824 150.41 156.544 152.75 154.064C155.08 151.594 156.13 147.544 154.2 144.734Z" fill="#742015" stroke="#5F1B12" stroke-width="2.5" stroke-miterlimit="10"/>
<path d="M214.89 141.484C219.43 143.104 223.98 144.734 228.52 146.354C230.79 147.164 233.06 147.974 235.34 148.794C236.84 149.324 239.3 150.104 239.25 152.144C239.23 153.184 238.89 154.234 238.25 155.054C236.81 156.914 234.3 157.674 231.95 157.564C229.6 157.464 227.36 156.614 225.16 155.784C221.98 154.574 218.68 153.294 216.34 150.814C214 148.334 212.96 144.294 214.89 141.484Z" fill="#742015" stroke="#5F1B12" stroke-width="2.5" stroke-miterlimit="10"/>
<path d="M112.72 290.184L96.8404 289.734C94.9404 289.684 93.2704 288.464 92.6404 286.674L85.2904 265.704C84.5804 263.684 85.3704 261.434 87.1904 260.294L92.8804 256.744C93.4304 256.394 94.0504 256.174 94.7004 256.094L112.12 253.784L112.72 290.184Z" fill="#CCCCCC" stroke="#444444" stroke-width="2" stroke-miterlimit="10" stroke-linecap="round" stroke-linejoin="round"/>
<path d="M122.191 286.104L115.051 289.694C112.541 290.954 109.5 289.684 108.63 287.014L100.95 263.364C100.25 261.214 101.231 258.874 103.251 257.854L110.391 254.264C112.901 253.004 115.94 254.274 116.81 256.944L124.49 280.594C125.19 282.744 124.211 285.094 122.191 286.104Z" fill="#F6F6F6" stroke="#444444" stroke-width="2" stroke-miterlimit="10" stroke-linecap="round" stroke-linejoin="round"/>
<path d="M112.036 269.459C113.179 269.137 113.641 267.229 113.068 265.199C112.495 263.169 111.104 261.784 109.961 262.106C108.818 262.429 108.357 264.336 108.93 266.367C109.503 268.397 110.894 269.782 112.036 269.459Z" fill="#CCCCCC" stroke="#444444" stroke-width="2" stroke-miterlimit="10" stroke-linecap="round" stroke-linejoin="round"/>
<path d="M116.576 282.119C117.719 281.797 118.18 279.889 117.607 277.859C117.034 275.829 115.644 274.444 114.501 274.767C113.358 275.089 112.896 276.997 113.469 279.027C114.042 281.057 115.433 282.442 116.576 282.119Z" fill="#CCCCCC" stroke="#444444" stroke-width="2" stroke-miterlimit="10" stroke-linecap="round" stroke-linejoin="round"/>
<path d="M77.4602 257.394C76.9502 260.384 82.6702 265.504 85.9102 265.364C89.1502 265.214 87.8402 259.604 87.6802 257.644C87.5102 255.684 86.2902 251.464 82.7202 251.784C79.1302 252.104 77.8702 254.984 77.4602 257.394Z" fill="#91231E" stroke="#5F1B12" stroke-width="2.5" stroke-miterlimit="10"/>
<path d="M93.2803 293.864C95.7103 296.184 100.19 295.714 102.04 293.304C103.89 290.894 101.68 287.884 99.7703 286.724C97.8703 285.564 93.2403 283.674 91.3503 286.454C89.4503 289.214 91.3203 291.994 93.2803 293.864Z" fill="#91231E" stroke="#5F1B12" stroke-width="2.5" stroke-miterlimit="10"/>
<path d="M99.6803 249.524C101.61 252.594 97.5703 261.094 93.9003 262.504C90.2303 263.914 89.1303 257.034 88.4303 254.774C87.7303 252.514 87.1603 247.214 91.2903 245.834C95.4103 244.454 98.1203 247.044 99.6803 249.524Z" fill="#91231E" stroke="#5F1B12" stroke-width="2.5" stroke-miterlimit="10"/>
<path d="M255.174 289.626L238.024 272.986L257.984 242.246L277.314 260.346C285.104 267.306 284.114 275.116 279.934 279.416L270.524 289.396C266.344 293.696 259.474 293.796 255.174 289.626Z" fill="#F6F6F6" stroke="#444444" stroke-width="2" stroke-miterlimit="10" stroke-linecap="round" stroke-linejoin="round"/>
<path d="M238.014 272.986L236.734 267.276C236.434 265.956 236.814 264.566 237.754 263.586L257.984 242.246L260.004 246.556C260.724 248.086 260.424 249.906 259.244 251.116L238.014 272.986Z" fill="#CCCCCC" stroke="#444444" stroke-width="2" stroke-miterlimit="10" stroke-linecap="round" stroke-linejoin="round"/>
<path d="M250.734 254.196L242.724 246.286C241.714 245.286 241.704 243.656 242.704 242.646L242.844 242.506C243.844 241.496 245.474 241.486 246.484 242.486L254.494 250.396L250.734 254.196Z" fill="#F6F6F6" stroke="#444444" stroke-width="2" stroke-miterlimit="10" stroke-linecap="round" stroke-linejoin="round"/>
<path d="M241.774 263.536L233.764 255.626C232.754 254.626 232.744 252.996 233.744 251.986L233.884 251.846C234.884 250.836 236.514 250.826 237.524 251.826L245.534 259.736L241.774 263.536Z" fill="#F6F6F6" stroke="#444444" stroke-width="2" stroke-miterlimit="10" stroke-linecap="round" stroke-linejoin="round"/>
<path d="M269.914 241.306C266.884 239.786 259.544 244.246 258.654 247.756C257.764 251.266 264.194 251.696 266.344 252.146C268.494 252.596 273.404 252.666 274.214 248.736C275.034 244.806 272.354 242.526 269.914 241.306Z" fill="#91231E" stroke="#5F1B12" stroke-width="2.5" stroke-miterlimit="10"/>
<path d="M283.624 260.365C283.784 263.475 277.214 268.145 273.874 267.665C270.534 267.185 272.584 261.575 273.004 259.585C273.424 257.595 275.214 253.395 278.884 254.095C282.554 254.785 283.494 257.865 283.624 260.365Z" fill="#91231E" stroke="#5F1B12" stroke-width="2.5" stroke-miterlimit="10"/>
<path d="M247.794 287.756C244.864 287.856 240.704 281.716 241.264 278.636C241.824 275.556 247.034 277.536 248.884 277.946C250.734 278.366 254.624 280.076 253.844 283.456C253.064 286.836 250.154 287.666 247.794 287.756Z" fill="#91231E" stroke="#5F1B12" stroke-width="2.5" stroke-miterlimit="10"/>
<defs>
<linearGradient id="paint0_linear_4463_32607" x1="271.5" y1="283" x2="336.5" y2="332" gradientUnits="userSpaceOnUse">
<stop stop-color="#AAAAAA"/>
<stop offset="1" stop-color="white" stop-opacity="0"/>
</linearGradient>
<linearGradient id="paint1_linear_4463_32607" x1="90" y1="273" x2="21" y2="330.5" gradientUnits="userSpaceOnUse">
<stop stop-color="#AAAAAA"/>
<stop offset="1" stop-color="white" stop-opacity="0"/>
</linearGradient>
</defs>
</svg>
